<svg xmlns="http://www.w3.org/2000/svg" width="800" height="500" viewBox="0 0 800 500">
  <defs>
    <radialGradient id="bg" cx="50%" cy="50%" r="70%">
      <stop offset="0%" stop-color="#080e18"/>
      <stop offset="100%" stop-color="#050505"/>
    </radialGradient>
    <radialGradient id="glow" cx="50%" cy="50%" r="40%">
      <stop offset="0%" stop-color="rgba(0,160,255,0.18)"/>
      <stop offset="100%" stop-color="transparent"/>
    </radialGradient>
  </defs>
  <rect width="800" height="500" fill="url(#bg)"/>
  <rect width="800" height="500" fill="url(#glow)"/>
  <!-- Parking lot surface -->
  <rect x="0" y="360" width="800" height="140" fill="rgba(0,0,0,0.5)"/>
  <rect x="0" y="358" width="800" height="3" fill="rgba(0,160,255,0.2)"/>
  <!-- Parking bays -->
  <line x1="200" y1="360" x2="200" y2="500" stroke="rgba(255,255,255,0.07)" stroke-width="2"/>
  <line x1="400" y1="360" x2="400" y2="500" stroke="rgba(255,255,255,0.07)" stroke-width="2"/>
  <line x1="600" y1="360" x2="600" y2="500" stroke="rgba(255,255,255,0.07)" stroke-width="2"/>
  <!-- EV station 1 -->
  <rect x="140" y="200" width="120" height="170" rx="8" fill="rgba(15,30,50,0.9)" stroke="rgba(0,160,255,0.5)" stroke-width="1.5"/>
  <rect x="155" y="220" width="90" height="60" rx="4" fill="rgba(0,160,255,0.12)" stroke="rgba(0,160,255,0.4)" stroke-width="1"/>
  <text x="200" y="248" text-anchor="middle" font-family="Arial, sans-serif" font-size="9" fill="rgba(0,180,255,0.9)" letter-spacing="1">AC 22kW</text>
  <text x="200" y="265" text-anchor="middle" font-family="Arial, sans-serif" font-size="14" font-weight="bold" fill="rgba(255,255,255,0.9)">LIBER</text>
  <circle cx="200" cy="190" r="6" fill="rgba(0,220,100,0.9)"/>
  <rect x="175" y="300" width="50" height="22" rx="4" fill="rgba(0,160,255,0.25)" stroke="rgba(0,160,255,0.5)" stroke-width="1"/>
  <text x="200" y="315" text-anchor="middle" font-family="Arial, sans-serif" font-size="8" fill="rgba(255,255,255,0.8)">TYPE 2</text>
  <!-- EV station 2 (center - active) -->
  <rect x="340" y="180" width="120" height="190" rx="8" fill="rgba(15,30,50,0.9)" stroke="rgba(0,160,255,0.7)" stroke-width="2"/>
  <rect x="355" y="200" width="90" height="70" rx="4" fill="rgba(0,160,255,0.18)" stroke="rgba(0,160,255,0.5)" stroke-width="1"/>
  <text x="400" y="225" text-anchor="middle" font-family="Arial, sans-serif" font-size="9" fill="rgba(0,180,255,0.9)" letter-spacing="1">DC 50kW</text>
  <text x="400" y="245" text-anchor="middle" font-family="Arial, sans-serif" font-size="18" font-weight="bold" fill="rgba(255,255,255,0.95)">73%</text>
  <text x="400" y="261" text-anchor="middle" font-family="Arial, sans-serif" font-size="8" fill="rgba(0,200,150,0.8)">●  ACTIV</text>
  <circle cx="400" cy="170" r="6" fill="rgba(0,160,255,0.9)"/>
  <rect x="370" y="285" width="60" height="22" rx="4" fill="rgba(0,160,255,0.3)" stroke="rgba(0,160,255,0.6)" stroke-width="1"/>
  <text x="400" y="300" text-anchor="middle" font-family="Arial, sans-serif" font-size="8" fill="rgba(255,255,255,0.9)">CCS2</text>
  <path d="M400 307 Q380 330 370 360" stroke="rgba(0,160,255,0.5)" stroke-width="4" fill="none" stroke-linecap="round"/>
  <!-- EV station 3 -->
  <rect x="540" y="200" width="120" height="170" rx="8" fill="rgba(15,30,50,0.9)" stroke="rgba(0,160,255,0.5)" stroke-width="1.5"/>
  <rect x="555" y="220" width="90" height="60" rx="4" fill="rgba(0,160,255,0.12)" stroke="rgba(0,160,255,0.4)" stroke-width="1"/>
  <text x="600" y="248" text-anchor="middle" font-family="Arial, sans-serif" font-size="9" fill="rgba(0,180,255,0.9)" letter-spacing="1">DC 150kW</text>
  <text x="600" y="265" text-anchor="middle" font-family="Arial, sans-serif" font-size="14" font-weight="bold" fill="rgba(255,255,255,0.9)">LIBER</text>
  <circle cx="600" cy="190" r="6" fill="rgba(0,220,100,0.9)"/>
  <rect x="575" y="300" width="50" height="22" rx="4" fill="rgba(0,160,255,0.25)" stroke="rgba(0,160,255,0.5)" stroke-width="1"/>
  <text x="600" y="315" text-anchor="middle" font-family="Arial, sans-serif" font-size="8" fill="rgba(255,255,255,0.8)">CCS2</text>
  <!-- Label -->
  <text x="400" y="455" text-anchor="middle" font-family="Arial, sans-serif" font-size="13" fill="rgba(0,160,255,0.8)" letter-spacing="3">GHID STAȚII DE ÎNCĂRCARE EV</text>
  <text x="400" y="478" text-anchor="middle" font-family="Arial, sans-serif" font-size="10" fill="rgba(255,255,255,0.3)" letter-spacing="2">GERSAN ROMANIA</text>
</svg>
