<svg xmlns="http://www.w3.org/2000/svg" width="800" height="500" viewBox="0 0 800 500">
  <defs>
    <radialGradient id="bg" cx="50%" cy="40%" r="60%">
      <stop offset="0%" stop-color="#1a1a2e"/>
      <stop offset="100%" stop-color="#050505"/>
    </radialGradient>
    <radialGradient id="light1" cx="30%" cy="0%" r="60%">
      <stop offset="0%" stop-color="rgba(255,220,100,0.35)"/>
      <stop offset="100%" stop-color="transparent"/>
    </radialGradient>
    <radialGradient id="light2" cx="70%" cy="0%" r="55%">
      <stop offset="0%" stop-color="rgba(255,220,100,0.25)"/>
      <stop offset="100%" stop-color="transparent"/>
    </radialGradient>
  </defs>
  <rect width="800" height="500" fill="url(#bg)"/>
  <rect width="800" height="500" fill="url(#light1)"/>
  <rect width="800" height="500" fill="url(#light2)"/>
  <!-- Floor line -->
  <rect x="0" y="380" width="800" height="2" fill="rgba(255,220,100,0.15)"/>
  <!-- Ceiling fixtures -->
  <rect x="160" y="0" width="4" height="80" fill="rgba(255,220,100,0.5)"/>
  <ellipse cx="162" cy="80" rx="18" ry="6" fill="rgba(255,220,100,0.6)"/>
  <rect x="390" y="0" width="4" height="80" fill="rgba(255,220,100,0.5)"/>
  <ellipse cx="392" cy="80" rx="18" ry="6" fill="rgba(255,220,100,0.6)"/>
  <rect x="620" y="0" width="4" height="80" fill="rgba(255,220,100,0.5)"/>
  <ellipse cx="622" cy="80" rx="18" ry="6" fill="rgba(255,220,100,0.6)"/>
  <!-- Shelves/structure -->
  <rect x="60" y="200" width="200" height="6" fill="rgba(255,255,255,0.1)"/>
  <rect x="60" y="270" width="200" height="6" fill="rgba(255,255,255,0.08)"/>
  <rect x="540" y="200" width="200" height="6" fill="rgba(255,255,255,0.1)"/>
  <rect x="540" y="270" width="200" height="6" fill="rgba(255,255,255,0.08)"/>
  <!-- Label -->
  <text x="400" y="430" text-anchor="middle" font-family="Arial, sans-serif" font-size="13" fill="rgba(255,220,100,0.7)" letter-spacing="3">ILUMINAT COMERCIAL LED</text>
  <text x="400" y="455" text-anchor="middle" font-family="Arial, sans-serif" font-size="10" fill="rgba(255,255,255,0.3)" letter-spacing="2">GERSAN ROMANIA</text>
</svg>
